# xmcd
#
# Track frame offsets: 
#        150
#        12645
#        32295
#        55675
#        77392
#        94947
#        110150
#        128222
#        148250
#        168575
#        180310
#        211655
#        229107
#
# Disc length: 3326 seconds
#
# Revision: 5
# Processed by: cddbd v1.5.2PL0 Copyright (c) Steve Scherf et al.
# Submitted via: ExactAudioCopyFreeDBPlugin 1.0
#
DISCID=a60cfc0d
DTITLE=Various Artist - Telarc's Got More Blues- New Blues for 2000
DYEAR=2000
DGENRE=Blues
TTITLE0=Kenny Neal - I'm the Man
TTITLE1=Son Seals - Let It Go
TTITLE2=Terry Evans - Story of My Life
TTITLE3=Ronnie Earl - Catfish Blues
TTITLE4=John Primer - Hard Working Woman
TTITLE5=Sam Lay - Rush Hour Blues
TTITLE6=Robert Lockwood, Jr. - I Believe I'll Dust My Broom
TTITLE7=Pinetop Perkins - Hi-Heel Sneakers
TTITLE8=Kenny Neal - What You Got
TTITLE9=Troy Turner - Later Than You Think
TTITLE10=Son Seals - Dear Son
TTITLE11=Mighty Sam McClain - Battlefield of Love
TTITLE12=James Cotton - Boot Knockin' Boogie
EXTD=LABEL =TELARC\nID =CD-83503\nUPC =089408-350320\nCOPYRIGHT =2
EXTD=000
EXTT0=
EXTT1=
EXTT2=
EXTT3=
EXTT4=
EXTT5=
EXTT6=
EXTT7=
EXTT8=
EXTT9=
EXTT10=
EXTT11=
EXTT12=
PLAYORDER=
